<?xml version="1.0" standalone="no"?>
<!DOCTYPE svg PUBLIC "-//W3C//DTD SVG 20010904//EN"
 "http://www.w3.org/TR/2001/REC-SVG-20010904/DTD/svg10.dtd">
<svg version="1.0" xmlns="http://www.w3.org/2000/svg"
 width="100.000000pt" height="100.000000pt" viewBox="0 0 100.000000 100.000000"
 preserveAspectRatio="xMidYMid meet">

<g transform="translate(0.000000,100.000000) scale(0.100000,-0.100000)"
fill="#000000" stroke="none">
<path d="M70 500 l0 -430 430 0 430 0 0 430 0 430 -430 0 -430 0 0 -430z m830
378 c2 -265 -1 -772 -3 -775 -3 -2 -510 -5 -774 -3 l-23 0 0 400 0 400 400 0
400 0 0 -22z"/>
<path d="M643 611 c-49 -23 -73 -62 -73 -121 0 -60 24 -98 76 -122 49 -21 103
-19 138 7 26 20 11 39 -17 20 -12 -8 -37 -15 -57 -15 -80 0 -134 72 -110 146
21 63 114 96 167 59 16 -11 24 -12 29 -4 10 17 -45 46 -91 48 -11 0 -39 -8
-62 -18z"/>
<path d="M222 490 c4 -158 21 -179 28 -33 l5 101 50 -84 c27 -46 52 -84 56
-84 4 0 30 39 58 87 l50 87 3 -104 c2 -72 7 -105 16 -108 9 -3 12 28 12 132 0
105 -3 136 -13 136 -7 0 -37 -43 -67 -95 -29 -52 -57 -92 -61 -89 -4 2 -31 45
-59 94 -72 126 -81 122 -78 -40z"/>
</g>
</svg>
